<svg id="SvgjsSvg1001" width="288" height="288" xmlns="http://www.w3.org/2000/svg" version="1.1" xmlns:xlink="http://www.w3.org/1999/xlink" xmlns:svgjs="http://svgjs.com/svgjs"><defs id="SvgjsDefs1002"></defs><g id="SvgjsG1008"><svg xmlns="http://www.w3.org/2000/svg" overflow="hidden" viewBox="0 0 96 96" width="288" height="288"><path d="M301.986 106C281.011 106 264.007 123.004 264.007 143.979 264.007 164.954 281.011 181.958 301.986 181.958 322.961 181.958 339.965 164.954 339.965 143.979 339.965 143.978 339.965 143.976 339.965 143.975 339.972 123.009 322.982 106.007 302.016 106 302.006 106 301.996 106 301.986 106ZM320.605 147.36 305.367 147.36 305.367 162.594 298.605 162.594 298.605 147.356 283.367 147.356 283.367 140.594 298.605 140.594 298.605 125.356 305.367 125.356 305.367 140.594 320.605 140.594Z" transform="translate(-254 -96)" fill="#6085fe" class="svgShape color000000-0 selectable"></path></svg></g></svg>