<svg width="686" height="255" xmlns="http://www.w3.org/2000/svg" xmlns:xlink="http://www.w3.org/1999/xlink" xml:space="preserve" overflow="hidden"><g transform="translate(-1479 -470)"><path d="M1482.5 514.834C1482.5 492.006 1501.01 473.5 1523.83 473.5L2120.17 473.5C2142.99 473.5 2161.5 492.006 2161.5 514.834L2161.5 680.166C2161.5 702.994 2142.99 721.5 2120.17 721.5L1523.83 721.5C1501.01 721.5 1482.5 702.994 1482.5 680.166Z" stroke="#FFFFFF" stroke-width="6.875" stroke-miterlimit="8" fill="#2B2A30" fill-rule="evenodd"/><path d="M1489 543 2090 716 1542.17 716C1512.8 716 1489 697.521 1489 674.726Z" fill="#504E5A" fill-rule="evenodd"/><text fill="#FFFFFF" font-family="Assistant,Assistant_MSFontService,sans-serif" font-weight="400" font-size="83" direction="rtl" writing-mode="rl-tb" transform="matrix(1 0 0 1 1696.98 624)" x="248.646">הסמכות</text><text fill="#FFFFFF" font-family="Assistant,Assistant_MSFontService,sans-serif" font-weight="400" font-size="83" transform="matrix(1 0 0 1 1680.37 624)"> </text></g></svg>