<svg width="685" height="254" xmlns="http://www.w3.org/2000/svg" xmlns:xlink="http://www.w3.org/1999/xlink" xml:space="preserve" overflow="hidden"><g transform="translate(-2750 -521)"><path d="M2753.5 565.667C2753.5 542.931 2771.93 524.5 2794.67 524.5L3390.33 524.5C3413.07 524.5 3431.5 542.931 3431.5 565.667L3431.5 730.333C3431.5 753.069 3413.07 771.501 3390.33 771.501L2794.67 771.501C2771.93 771.501 2753.5 753.069 2753.5 730.333Z" stroke="#FFFFFF" stroke-width="6.875" stroke-miterlimit="8" fill="#2B2A30" fill-rule="evenodd"/><path d="M2759 594 3361 766 2812.25 766C2782.84 766 2759 747.628 2759 724.965Z" fill="#504E5A" fill-rule="evenodd"/><text fill="#FFFFFF" font-family="Assistant,Assistant_MSFontService,sans-serif" font-weight="400" font-size="83" direction="rtl" writing-mode="rl-tb" transform="matrix(1 0 0 1 3082.5 675)" x="265.26">הסמכות </text><text fill="#FFFFFF" font-family="Assistant,Assistant_MSFontService,sans-serif" font-weight="400" font-size="83" direction="rtl" writing-mode="rl-tb" transform="matrix(1 0 0 1 2836.14 675)" x="246.354">ורענונים</text><text fill="#FFFFFF" font-family="Assistant,Assistant_MSFontService,sans-serif" font-weight="400" font-size="83" transform="matrix(1 0 0 1 3347.78 675)"> </text></g></svg>