<svg width="685" height="255" xmlns="http://www.w3.org/2000/svg" xmlns:xlink="http://www.w3.org/1999/xlink" xml:space="preserve" overflow="hidden"><g transform="translate(-3504 -846)"><path d="M3507.5 890.834C3507.5 868.006 3526.01 849.5 3548.83 849.5L4144.17 849.5C4166.99 849.5 4185.5 868.006 4185.5 890.834L4185.5 1056.17C4185.5 1078.99 4166.99 1097.5 4144.17 1097.5L3548.83 1097.5C3526.01 1097.5 3507.5 1078.99 3507.5 1056.17Z" stroke="#FFFFFF" stroke-width="6.875" stroke-miterlimit="8" fill="#2B2A30" fill-rule="evenodd"/><path d="M3513 919 4115 1092 3566.25 1092C3536.84 1092 3513 1073.52 3513 1050.73Z" fill="#504E5A" fill-rule="evenodd"/><text fill="#FFFFFF" font-family="Assistant,Assistant_MSFontService,sans-serif" font-weight="400" font-size="83" direction="rtl" writing-mode="rl-tb" transform="matrix(1 0 0 1 3723.34 1000)" x="245.208">מטווחים</text><text fill="#FFFFFF" font-family="Assistant,Assistant_MSFontService,sans-serif" font-weight="400" font-size="83" transform="matrix(1 0 0 1 3968.57 1000)"> </text></g></svg>