<svg width="685" height="255" xmlns="http://www.w3.org/2000/svg" xmlns:xlink="http://www.w3.org/1999/xlink" xml:space="preserve" overflow="hidden"><g transform="translate(-3504 -1169)"><path d="M3507.5 1213.83C3507.5 1191.01 3526.01 1172.5 3548.83 1172.5L4144.17 1172.5C4166.99 1172.5 4185.5 1191.01 4185.5 1213.83L4185.5 1379.17C4185.5 1401.99 4166.99 1420.5 4144.17 1420.5L3548.83 1420.5C3526.01 1420.5 3507.5 1401.99 3507.5 1379.17Z" stroke="#FFFFFF" stroke-width="6.875" stroke-miterlimit="8" fill="#2B2A30" fill-rule="evenodd"/><path d="M3513 1242 4115 1415 3566.25 1415C3536.84 1415 3513 1396.52 3513 1373.73Z" fill="#504E5A" fill-rule="evenodd"/><text fill="#FFFFFF" font-family="Assistant,Assistant_MSFontService,sans-serif" font-weight="400" font-size="83" direction="rtl" writing-mode="rl-tb" transform="matrix(1 0 0 1 3691.83 1323)" x="308.229">לוגיסטיקה</text><text fill="#FFFFFF" font-family="Assistant,Assistant_MSFontService,sans-serif" font-weight="400" font-size="83" transform="matrix(1 0 0 1 4000.08 1323)"> </text></g></svg>