<svg width="691" height="255" xmlns="http://www.w3.org/2000/svg" xmlns:xlink="http://www.w3.org/1999/xlink" xml:space="preserve" overflow="hidden"><g transform="translate(-2784 -1179)"><path d="M2787.5 1223.83C2787.5 1201.01 2806.01 1182.5 2828.83 1182.5L3425.17 1182.5C3447.99 1182.5 3466.5 1201.01 3466.5 1223.83L3466.5 1389.17C3466.5 1411.99 3447.99 1430.5 3425.17 1430.5L2828.83 1430.5C2806.01 1430.5 2787.5 1411.99 2787.5 1389.17Z" stroke="#FFFFFF" stroke-width="6.875" stroke-miterlimit="8" fill="#2B2A30" fill-rule="evenodd"/><path d="M2794 1252 3395 1425 2847.17 1425C2817.8 1425 2794 1406.52 2794 1383.73Z" fill="#504E5A" fill-rule="evenodd"/><text fill="#FFFFFF" font-family="Assistant,Assistant_MSFontService,sans-serif" font-weight="400" font-size="83" direction="rtl" writing-mode="rl-tb" transform="matrix(1 0 0 1 2845.05 1333)" x="563.177">מבנה אלת לדוגמה</text><text fill="#FFFFFF" font-family="Assistant,Assistant_MSFontService,sans-serif" font-weight="400" font-size="83" transform="matrix(1 0 0 1 3408.25 1333)"> </text></g></svg>