<svg width="685" height="254" xmlns="http://www.w3.org/2000/svg" xmlns:xlink="http://www.w3.org/1999/xlink" xml:space="preserve" overflow="hidden"><g transform="translate(-2776 -1484)"><path d="M2779.5 1528.67C2779.5 1505.93 2797.93 1487.5 2820.67 1487.5L3416.33 1487.5C3439.07 1487.5 3457.5 1505.93 3457.5 1528.67L3457.5 1693.33C3457.5 1716.07 3439.07 1734.5 3416.33 1734.5L2820.67 1734.5C2797.93 1734.5 2779.5 1716.07 2779.5 1693.33Z" stroke="#FFFFFF" stroke-width="6.875" stroke-miterlimit="8" fill="#2B2A30" fill-rule="evenodd"/><path d="M2785 1556 3387 1729 2838.25 1729C2808.84 1729 2785 1710.52 2785 1687.73Z" fill="#504E5A" fill-rule="evenodd"/><text fill="#FFFFFF" font-family="Assistant,Assistant_MSFontService,sans-serif" font-weight="400" font-size="83" direction="rtl" writing-mode="rl-tb" transform="matrix(1 0 0 1 3099.97 1637)" x="122.031">דרכ</text><text fill="#FFFFFF" font-family="Assistant,Assistant_MSFontService,sans-serif" font-weight="400" font-size="83" direction="rtl" writing-mode="rl-tb" transform="matrix(1 0 0 1 3066.16 1637)" x="33.8021">"</text><text fill="#FFFFFF" font-family="Assistant,Assistant_MSFontService,sans-serif" font-weight="400" font-size="83" direction="rtl" writing-mode="rl-tb" transform="matrix(1 0 0 1 3014.03 1637)" x="52.1354">ש</text><text fill="#FFFFFF" font-family="Assistant,Assistant_MSFontService,sans-serif" font-weight="400" font-size="83" transform="matrix(1 0 0 1 3222.02 1637)"> </text></g></svg>