<svg width="685" height="254" xmlns="http://www.w3.org/2000/svg" xmlns:xlink="http://www.w3.org/1999/xlink" xml:space="preserve" overflow="hidden"><g transform="translate(-3504 -526)"><path d="M3507.5 570.667C3507.5 547.931 3525.93 529.5 3548.67 529.5L4144.33 529.5C4167.07 529.5 4185.5 547.931 4185.5 570.667L4185.5 735.333C4185.5 758.069 4167.07 776.5 4144.33 776.5L3548.67 776.5C3525.93 776.5 3507.5 758.069 3507.5 735.333Z" stroke="#FFFFFF" stroke-width="6.875" stroke-miterlimit="8" fill="#2B2A30" fill-rule="evenodd"/><path d="M3513 599 4115 771 3566.25 771C3536.84 771 3513 752.628 3513 729.965Z" fill="#504E5A" fill-rule="evenodd"/><text fill="#FFFFFF" font-family="Assistant,Assistant_MSFontService,sans-serif" font-weight="400" font-size="83" direction="rtl" writing-mode="rl-tb" transform="matrix(1 0 0 1 3708.44 680)" x="275">שטחי אש</text><text fill="#FFFFFF" font-family="Assistant,Assistant_MSFontService,sans-serif" font-weight="400" font-size="83" transform="matrix(1 0 0 1 3983.47 680)"> </text></g></svg>